<?xml version="1.0" standalone="no"?>
<!DOCTYPE svg PUBLIC "-//W3C//DTD SVG 20010904//EN"
 "http://www.w3.org/TR/2001/REC-SVG-20010904/DTD/svg10.dtd">
<svg version="1.0" xmlns="http://www.w3.org/2000/svg"
 width="500.000000pt" height="500.000000pt" viewBox="0 0 500.000000 500.000000"
 preserveAspectRatio="xMidYMid meet">

<g transform="translate(0.000000,500.000000) scale(0.100000,-0.100000)"
fill="#000000" stroke="none">
<path d="M0 2500 l0 -2500 2500 0 2500 0 0 2500 0 2500 -2500 0 -2500 0 0
-2500z m3525 1438 c0 -76 -1 -392 -3 -703 l-2 -565 -705 0 -705 0 0 34 c0 22
6 36 16 40 9 3 310 6 670 6 l654 0 0 666 0 665 38 -3 37 -3 0 -137z m-1280 92
l0 -35 -667 -3 -668 -2 0 -664 0 -664 -22 -4 c-13 -2 -31 -2 -40 0 -17 3 -18
45 -18 702 0 549 3 699 13 703 6 3 325 4 707 4 l695 -2 0 -35z m-718 -572 l33
-32 0 -133 0 -133 -30 0 -30 0 0 65 0 65 -110 0 -110 0 0 -65 0 -65 -35 0 -35
0 0 132 0 132 32 33 32 33 110 0 110 0 33 -32z m470 0 l33 -32 0 -133 0 -133
-30 0 -30 0 0 130 0 130 -50 0 -50 0 0 -85 0 -85 -35 0 -35 0 0 85 0 85 -50 0
-50 0 0 -130 0 -130 -35 0 -35 0 0 130 0 129 31 36 31 35 136 0 136 0 33 -32z
m423 -3 l0 -35 -125 0 -125 0 0 -130 0 -130 -30 0 -30 0 0 132 0 132 32 33 32
33 123 0 123 0 0 -35z m325 0 c0 -29 -2 -30 -48 -33 l-48 -3 3 -97 3 -97 48
-3 c45 -3 47 -5 47 -33 l0 -29 -130 0 -130 0 0 29 c0 28 2 30 48 33 l47 3 3
97 3 97 -48 3 c-46 3 -48 4 -51 36 l-3 33 128 -3 128 -3 0 -30z m413 3 l-3
-33 -67 -3 -68 -3 0 -129 0 -130 -30 0 -30 0 0 130 0 130 -70 0 -70 0 0 35 0
35 171 0 170 0 -3 -32z"/>
<path d="M1280 3390 l0 -30 110 0 110 0 0 30 0 30 -110 0 -110 0 0 -30z"/>
</g>
</svg>
